<svg width="26" height="26" viewBox="0 0 80 70" fill="none" xmlns="http://www.w3.org/2000/svg">
<path fill-rule="evenodd" clip-rule="evenodd" d="M38.535 68.535C37.5974 69.4723 36.3259 69.9989 35 69.9989C33.6742 69.9989 32.4027 69.4723 31.465 68.535L1.46503 38.535C0.527675 37.5973 0.00109863 36.3258 0.00109863 35C0.00109863 33.6741 0.527675 32.4026 1.46503 31.465L31.465 1.46496C32.408 0.55417 33.6711 0.0501983 34.982 0.0615904C36.293 0.0729825 37.5471 0.598827 38.4741 1.52587C39.4012 2.45291 39.927 3.70697 39.9384 5.01795C39.9498 6.32894 39.4458 7.59195 38.535 8.53496L17.07 30H75C76.3261 30 77.5979 30.5267 78.5356 31.4644C79.4733 32.4021 80 33.6739 80 35C80 36.326 79.4733 37.5978 78.5356 38.5355C77.5979 39.4732 76.3261 40 75 40H17.07L38.535 61.465C39.4724 62.4026 39.999 63.6741 39.999 65C39.999 66.3258 39.4724 67.5973 38.535 68.535Z" fill="#3F3F46"/>
</svg>
