<svg width="24" height="26" viewBox="0 0 24 26" fill="none" xmlns="http://www.w3.org/2000/svg">
<path d="M11.9999 0.199951C9.45387 0.199951 7.01207 1.21138 5.21173 3.01173C3.41138 4.81207 2.39995 7.25387 2.39995 9.79995V15.5375L1.26875 16.6687C1.04506 16.8925 0.892727 17.1776 0.831019 17.4879C0.76931 17.7982 0.800995 18.1199 0.922067 18.4122C1.04314 18.7045 1.24816 18.9544 1.51122 19.1302C1.77427 19.306 2.08355 19.3999 2.39995 19.3999H21.5999C21.9163 19.3999 22.2256 19.306 22.4887 19.1302C22.7517 18.9544 22.9568 18.7045 23.0778 18.4122C23.1989 18.1199 23.2306 17.7982 23.1689 17.4879C23.1072 17.1776 22.9548 16.8925 22.7311 16.6687L21.5999 15.5375V9.79995C21.5999 7.25387 20.5885 4.81207 18.7882 3.01173C16.9878 1.21138 14.546 0.199951 11.9999 0.199951ZM11.9999 25.7999C10.7269 25.7999 9.50601 25.2942 8.60584 24.3941C7.70566 23.4939 7.19995 22.273 7.19995 20.9999H16.7999C16.7999 22.273 16.2942 23.4939 15.3941 24.3941C14.4939 25.2942 13.273 25.7999 11.9999 25.7999Z" fill="#3F3F46"/>
</svg>
