<svg width="26" height="26" viewBox="0 0 26 26" fill="none" xmlns="http://www.w3.org/2000/svg">
<path fill-rule="evenodd" clip-rule="evenodd" d="M13 0.5C13.663 0.5 14.2989 0.763393 14.7678 1.23223C15.2366 1.70107 15.5 2.33696 15.5 3V10.5H23C23.663 10.5 24.2989 10.7634 24.7678 11.2322C25.2366 11.7011 25.5 12.337 25.5 13C25.5 13.663 25.2366 14.2989 24.7678 14.7678C24.2989 15.2366 23.663 15.5 23 15.5H15.5V23C15.5 23.663 15.2366 24.2989 14.7678 24.7678C14.2989 25.2366 13.663 25.5 13 25.5C12.337 25.5 11.7011 25.2366 11.2322 24.7678C10.7634 24.2989 10.5 23.663 10.5 23V15.5H3C2.33696 15.5 1.70107 15.2366 1.23223 14.7678C0.763393 14.2989 0.5 13.663 0.5 13C0.5 12.337 0.763393 11.7011 1.23223 11.2322C1.70107 10.7634 2.33696 10.5 3 10.5H10.5V3C10.5 2.33696 10.7634 1.70107 11.2322 1.23223C11.7011 0.763393 12.337 0.5 13 0.5V0.5Z" fill="#1F2937"/>
</svg>
